# xmcd
#
# Track frame offsets: 
#        150
#        10988
#        29861
#        48114
#        60630
#        81367
#        94922
#        111458
#        128351
#        143870
#        165173
#
# Disc length: 2376 seconds
#
# Revision: 0
# Processed by: cddbd v1.5.2PL0 Copyright (c) Steve Scherf et al.
# Submitted via: ExactAudioCopy v0.99pb5
#
DISCID=8d09460b
DTITLE=A.D. Chandler - Some Days Are Better Than None
DYEAR=2009
DGENRE=Alt. Country
TTITLE0=I Think I
TTITLE1=Thank God For Whiskey
TTITLE2=Just For My Baby
TTITLE3=Sick and Tired
TTITLE4=The Old Glory
TTITLE5=Your Sweet Way
TTITLE6=Dream Of You
TTITLE7=Any Other Way
TTITLE8=I Got Rid Of Her
TTITLE9=Come Out Of The Rain
TTITLE10=You Don't Want Me Anymore
EXTD=
EXTT0=
EXTT1=
EXTT2=
EXTT3=
EXTT4=
EXTT5=
EXTT6=
EXTT7=
EXTT8=
EXTT9=
EXTT10=
PLAYORDER=
